{
  "accessors": [
    {
      "bufferView": 2,
      "componentType": 5126,
      "count": 37335,
      "max": [
        7.752659797668457,
        11.082216262817383,
        9.114173889160156
      ],
      "min": [
        0.9116649031639099,
        -0.08586406707763672,
        -8.768621444702148
      ],
      "type": "VEC3"
    },
    {
      "bufferView": 2,
      "byteOffset": 448020,
      "componentType": 5126,
      "count": 37335,
      "max": [
        0.9999607801437378,
        0.9999668598175049,
        0.9999781847000122
      ],
      "min": [
        -0.9999945163726807,
        -0.9999985694885254,
        -0.9997314810752869
      ],
      "type": "VEC3"
    },
    {
      "bufferView": 1,
      "componentType": 5126,
      "count": 37335,
      "max": [
        0.9976000189781189,
        0.9980999827384949
      ],
      "min": [
        0.0019000000320374966,
        0.001999974250793457
      ],
      "type": "VEC2"
    },
    {
      "bufferView": 0,
      "componentType": 5125,
      "count": 204390,
      "type": "SCALAR"
    },
    {
      "bufferView": 2,
      "byteOffset": 896040,
      "componentType": 5126,
      "count": 37335,
      "max": [
        -0.9116649031639099,
        11.082216262817383,
        9.114173889160156
      ],
      "min": [
        -7.752659797668457,
        -0.08586406707763672,
        -8.768621444702148
      ],
      "type": "VEC3"
    },
    {
      "bufferView": 2,
      "byteOffset": 1344060,
      "componentType": 5126,
      "count": 37335,
      "max": [
        0.9999945163726807,
        0.9999669194221497,
        0.999978244304657
      ],
      "min": [
        -0.9999607801437378,
        -0.9999985694885254,
        -0.9997314810752869
      ],
      "type": "VEC3"
    },
    {
      "bufferView": 1,
      "byteOffset": 298680,
      "componentType": 5126,
      "count": 37335,
      "max": [
        0.9976000189781189,
        0.9980999827384949
      ],
      "min": [
        0.0019000000320374966,
        0.001999974250793457
      ],
      "type": "VEC2"
    },
    {
      "bufferView": 0,
      "byteOffset": 817560,
      "componentType": 5125,
      "count": 204390,
      "type": "SCALAR"
    }
  ],
  "asset": {
    "extras": {
      "author": "SRUSH651 2th☑ (https://sketchfab.com/THE-OFFICIAL-SRUSH651)",
      "license": "CC-BY-4.0 (http://creativecommons.org/licenses/by/4.0/)",
      "source": "https://sketchfab.com/3d-models/air-jordan-1-off-white-chicago-bb17faf8188148369ae4a535c0af863c",
      "title": "AIR JORDAN 1 OFF WHITE Chicago"
    },
    "generator": "Sketchfab-16.56.0",
    "version": "2.0"
  },
  "bufferViews": [
    {
      "buffer": 0,
      "byteLength": 1635120,
      "name": "floatBufferViews",
      "target": 34963
    },
    {
      "buffer": 0,
      "byteLength": 597360,
      "byteOffset": 1635120,
      "byteStride": 8,
      "name": "floatBufferViews",
      "target": 34962
    },
    {
      "buffer": 0,
      "byteLength": 1792080,
      "byteOffset": 2232480,
      "byteStride": 12,
      "name": "floatBufferViews",
      "target": 34962
    }
  ],
  "buffers": [
    {
      "byteLength": 4024560,
      "uri": "scene.bin"
    }
  ],
  "images": [
    {
      "uri": "textures/lambert1_baseColor.jpeg"
    }
  ],
  "materials": [
    {
      "doubleSided": true,
      "emissiveFactor": [
        1.0,
        1.0,
        1.0
      ],
      "emissiveTexture": {
        "index": 0
      },
      "name": "lambert1",
      "pbrMetallicRoughness": {
        "baseColorTexture": {
          "index": 0
        }
      }
    }
  ],
  "meshes": [
    {
      "name": "left_air_jordan1_Off_White_NIKE_Red_lambert1_0",
      "primitives": [
        {
          "attributes": {
            "NORMAL": 1,
            "POSITION": 0,
            "TEXCOORD_0": 2
          },
          "indices": 3,
          "material": 0,
          "mode": 4
        }
      ]
    },
    {
      "name": "right_air_jordan1_Off_White_NIKE_Red_lambert1_0",
      "primitives": [
        {
          "attributes": {
            "NORMAL": 5,
            "POSITION": 4,
            "TEXCOORD_0": 6
          },
          "indices": 7,
          "material": 0,
          "mode": 4
        }
      ]
    }
  ],
  "nodes": [
    {
      "children": [
        1
      ],
      "matrix": [
        1.0,
        0.0,
        0.0,
        0.0,
        0.0,
        2.220446049250313e-16,
        -1.0,
        0.0,
        0.0,
        1.0,
        2.220446049250313e-16,
        0.0,
        0.0,
        0.0,
        0.0,
        1.0
      ],
      "name": "Sketchfab_model"
    },
    {
      "children": [
        2
      ],
      "matrix": [
        0.009999999776482582,
        0.0,
        0.0,
        0.0,
        0.0,
        2.2204459996194763e-18,
        0.009999999776482582,
        0.0,
        0.0,
        -0.009999999776482582,
        2.2204459996194763e-18,
        0.0,
        0.0,
        0.0,
        0.0,
        1.0
      ],
      "name": "USDRoot"
    },
    {
      "children": [
        3
      ],
      "name": "scene"
    },
    {
      "children": [
        4
      ],
      "matrix": [
        100.0,
        0.0,
        0.0,
        0.0,
        0.0,
        100.0,
        0.0,
        0.0,
        0.0,
        0.0,
        100.0,
        0.0,
        0.0,
        0.0,
        0.0,
        1.0
      ],
      "name": "Meshes"
    },
    {
      "children": [
        5
      ],
      "matrix": [
        1.0,
        0.0,
        0.0,
        0.0,
        0.0,
        2.220446049250313e-16,
        -1.0,
        0.0,
        0.0,
        1.0,
        2.220446049250313e-16,
        0.0,
        0.0,
        0.0,
        0.0,
        1.0
      ],
      "name": "Sketchfab_model"
    },
    {
      "children": [
        6
      ],
      "matrix": [
        0.009999999776482582,
        0.0,
        0.0,
        0.0,
        0.0,
        0.0,
        0.009999999776482582,
        0.0,
        0.0,
        -0.009999999776482582,
        0.0,
        0.0,
        0.0,
        0.0,
        0.0,
        1.0
      ],
      "name": "_793295b1dbf436ba25614936daa7d58_fbx"
    },
    {
      "children": [
        7,
        10
      ],
      "name": "RootNode"
    },
    {
      "children": [
        8
      ],
      "name": "left_air_jordan1_Off_White_NIKE_Red"
    },
    {
      "children": [
        9
      ],
      "name": "left_air_jordan1_Off_White_NIKE_Red_lambert1_0"
    },
    {
      "mesh": 0,
      "name": "left_air_jordan1_Off_White_NIKE_Red_lambert1_0"
    },
    {
      "children": [
        11
      ],
      "name": "right_air_jordan1_Off_White_NIKE_Red"
    },
    {
      "children": [
        12
      ],
      "name": "right_air_jordan1_Off_White_NIKE_Red_lambert1_0"
    },
    {
      "mesh": 1,
      "name": "right_air_jordan1_Off_White_NIKE_Red_lambert1_0"
    }
  ],
  "samplers": [
    {
      "magFilter": 9729,
      "minFilter": 9987,
      "wrapS": 10497,
      "wrapT": 10497
    }
  ],
  "scene": 0,
  "scenes": [
    {
      "name": "Sketchfab_Scene",
      "nodes": [
        0
      ]
    }
  ],
  "textures": [
    {
      "sampler": 0,
      "source": 0
    }
  ]
}
