{
  "accessors": [
    {
      "bufferView": 2,
      "componentType": 5126,
      "count": 28992,
      "max": [
        10.068034172058105,
        12.92894172668457,
        11.3951997756958
      ],
      "min": [
        1.607234001159668,
        -0.060658812522888184,
        -11.3951997756958
      ],
      "type": "VEC3"
    },
    {
      "bufferView": 2,
      "byteOffset": 347904,
      "componentType": 5126,
      "count": 28992,
      "max": [
        0.9999967217445374,
        1.0,
        0.9999549984931946
      ],
      "min": [
        -0.9999932646751404,
        -0.9999998211860657,
        -0.999806821346283
      ],
      "type": "VEC3"
    },
    {
      "bufferView": 1,
      "componentType": 5126,
      "count": 28992,
      "max": [
        0.9624999761581421,
        0.9717000126838684
      ],
      "min": [
        0.029400000348687172,
        0.027000010013580322
      ],
      "type": "VEC2"
    },
    {
      "bufferView": 0,
      "componentType": 5125,
      "count": 167466,
      "type": "SCALAR"
    },
    {
      "bufferView": 2,
      "byteOffset": 695808,
      "componentType": 5126,
      "count": 28992,
      "max": [
        -2.2049503326416016,
        17.737102508544922,
        15.632974624633789
      ],
      "min": [
        -13.812247276306152,
        -0.08321729302406311,
        -15.632974624633789
      ],
      "type": "VEC3"
    },
    {
      "bufferView": 2,
      "byteOffset": 1043712,
      "componentType": 5126,
      "count": 28992,
      "max": [
        0.9999933242797852,
        1.0,
        0.9999549984931946
      ],
      "min": [
        -0.9999967217445374,
        -0.9999998211860657,
        -0.9998067617416382
      ],
      "type": "VEC3"
    },
    {
      "bufferView": 1,
      "byteOffset": 231936,
      "componentType": 5126,
      "count": 28992,
      "max": [
        0.9624999761581421,
        0.9717000126838684
      ],
      "min": [
        0.029400000348687172,
        0.027000010013580322
      ],
      "type": "VEC2"
    },
    {
      "bufferView": 0,
      "byteOffset": 669864,
      "componentType": 5125,
      "count": 167466,
      "type": "SCALAR"
    }
  ],
  "asset": {
    "extras": {
      "author": "SRUSH651 2th☑ (https://sketchfab.com/THE-OFFICIAL-SRUSH651)",
      "license": "CC-BY-4.0 (http://creativecommons.org/licenses/by/4.0/)",
      "source": "https://sketchfab.com/3d-models/air-jordan-1-og-high-travis-scott-4ba6ce5ff08c4cc0941a6ce3202fe488",
      "title": "AIR JORDAN 1 OG HIGH TRAVIS SCOTT"
    },
    "generator": "Sketchfab-16.56.0",
    "version": "2.0"
  },
  "bufferViews": [
    {
      "buffer": 0,
      "byteLength": 1339728,
      "name": "floatBufferViews",
      "target": 34963
    },
    {
      "buffer": 0,
      "byteLength": 463872,
      "byteOffset": 1339728,
      "byteStride": 8,
      "name": "floatBufferViews",
      "target": 34962
    },
    {
      "buffer": 0,
      "byteLength": 1391616,
      "byteOffset": 1803600,
      "byteStride": 12,
      "name": "floatBufferViews",
      "target": 34962
    }
  ],
  "buffers": [
    {
      "byteLength": 3195216,
      "uri": "scene.bin"
    }
  ],
  "images": [
    {
      "uri": "textures/lambert1_baseColor.jpeg"
    }
  ],
  "materials": [
    {
      "doubleSided": true,
      "emissiveFactor": [
        1.0,
        1.0,
        1.0
      ],
      "emissiveTexture": {
        "index": 0
      },
      "name": "lambert1",
      "pbrMetallicRoughness": {
        "baseColorTexture": {
          "index": 0
        }
      }
    }
  ],
  "meshes": [
    {
      "name": "Travis_Scott_x_Nike_Air_Jordan_1_High_Retro_lambert1_0",
      "primitives": [
        {
          "attributes": {
            "NORMAL": 1,
            "POSITION": 0,
            "TEXCOORD_0": 2
          },
          "indices": 3,
          "material": 0,
          "mode": 4
        }
      ]
    },
    {
      "name": "Travis_Scott_x_Nike_Air_Jordan_1_High_Retro1_lambert1_0",
      "primitives": [
        {
          "attributes": {
            "NORMAL": 5,
            "POSITION": 4,
            "TEXCOORD_0": 6
          },
          "indices": 7,
          "material": 0,
          "mode": 4
        }
      ]
    }
  ],
  "nodes": [
    {
      "children": [
        1
      ],
      "matrix": [
        1.0,
        0.0,
        0.0,
        0.0,
        0.0,
        2.220446049250313e-16,
        -1.0,
        0.0,
        0.0,
        1.0,
        2.220446049250313e-16,
        0.0,
        0.0,
        0.0,
        0.0,
        1.0
      ],
      "name": "Sketchfab_model"
    },
    {
      "children": [
        2
      ],
      "matrix": [
        0.009999999776482582,
        0.0,
        0.0,
        0.0,
        0.0,
        2.2204459996194763e-18,
        0.009999999776482582,
        0.0,
        0.0,
        -0.009999999776482582,
        2.2204459996194763e-18,
        0.0,
        0.0,
        0.0,
        0.0,
        1.0
      ],
      "name": "USDRoot"
    },
    {
      "children": [
        3
      ],
      "name": "scene"
    },
    {
      "children": [
        4
      ],
      "matrix": [
        100.0,
        0.0,
        0.0,
        0.0,
        0.0,
        100.0,
        0.0,
        0.0,
        0.0,
        0.0,
        100.0,
        0.0,
        0.0,
        0.0,
        0.0,
        1.0
      ],
      "name": "Meshes"
    },
    {
      "children": [
        5
      ],
      "matrix": [
        1.0,
        0.0,
        0.0,
        0.0,
        0.0,
        2.220446049250313e-16,
        -1.0,
        0.0,
        0.0,
        1.0,
        2.220446049250313e-16,
        0.0,
        0.0,
        0.0,
        0.0,
        1.0
      ],
      "name": "Sketchfab_model"
    },
    {
      "children": [
        6
      ],
      "matrix": [
        0.009999999776482582,
        0.0,
        0.0,
        0.0,
        0.0,
        0.0,
        0.009999999776482582,
        0.0,
        0.0,
        -0.009999999776482582,
        0.0,
        0.0,
        0.0,
        0.0,
        0.0,
        1.0
      ],
      "name": "_7d9040f631b43fe8ba4989ca7755574_fbx"
    },
    {
      "children": [
        7,
        10
      ],
      "name": "RootNode"
    },
    {
      "children": [
        8
      ],
      "matrix": [
        1.3718912601470947,
        0.0,
        0.0,
        0.0,
        0.0,
        1.3718912601470947,
        0.0,
        0.0,
        0.0,
        0.0,
        1.3718912601470947,
        0.0,
        0.0,
        0.0,
        0.0,
        1.0
      ],
      "name": "Travis_Scott_x_Nike_Air_Jordan_1_High_Retro"
    },
    {
      "children": [
        9
      ],
      "name": "Travis_Scott_x_Nike_Air_Jordan_1_High_Retro_lambert1_0"
    },
    {
      "mesh": 0,
      "name": "Travis_Scott_x_Nike_Air_Jordan_1_High_Retro_lambert1_0"
    },
    {
      "children": [
        11
      ],
      "name": "Travis_Scott_x_Nike_Air_Jordan_1_High_Retro1"
    },
    {
      "children": [
        12
      ],
      "name": "Travis_Scott_x_Nike_Air_Jordan_1_High_Retro1_lambert1_0"
    },
    {
      "mesh": 1,
      "name": "Travis_Scott_x_Nike_Air_Jordan_1_High_Retro1_lambert1_0"
    }
  ],
  "samplers": [
    {
      "magFilter": 9729,
      "minFilter": 9987,
      "wrapS": 10497,
      "wrapT": 10497
    }
  ],
  "scene": 0,
  "scenes": [
    {
      "name": "Sketchfab_Scene",
      "nodes": [
        0
      ]
    }
  ],
  "textures": [
    {
      "sampler": 0,
      "source": 0
    }
  ]
}
