{
  "accessors": [
    {
      "bufferView": 2,
      "componentType": 5126,
      "count": 25094,
      "max": [
        10.852609634399414,
        14.390636444091797,
        11.506535530090332
      ],
      "min": [
        1.4592419862747192,
        -0.21616500616073608,
        -11.528583526611328
      ],
      "type": "VEC3"
    },
    {
      "bufferView": 2,
      "byteOffset": 301128,
      "componentType": 5126,
      "count": 25094,
      "max": [
        0.9999821782112122,
        1.0,
        0.9999156594276428
      ],
      "min": [
        -0.999977171421051,
        -0.9999983310699463,
        -0.9999105334281921
      ],
      "type": "VEC3"
    },
    {
      "bufferView": 1,
      "componentType": 5126,
      "count": 25094,
      "max": [
        0.9914000034332275,
        0.9818000197410583
      ],
      "min": [
        0.007899000309407711,
        0.01090097427368164
      ],
      "type": "VEC2"
    },
    {
      "bufferView": 0,
      "componentType": 5125,
      "count": 142062,
      "type": "SCALAR"
    },
    {
      "bufferView": 2,
      "byteOffset": 602256,
      "componentType": 5126,
      "count": 25094,
      "max": [
        -1.4592419862747192,
        14.390636444091797,
        11.506535530090332
      ],
      "min": [
        -10.852609634399414,
        -0.21616500616073608,
        -11.528583526611328
      ],
      "type": "VEC3"
    },
    {
      "bufferView": 2,
      "byteOffset": 903384,
      "componentType": 5126,
      "count": 25094,
      "max": [
        0.999977171421051,
        1.0,
        0.9999156594276428
      ],
      "min": [
        -0.9999821782112122,
        -0.9999983310699463,
        -0.9999105334281921
      ],
      "type": "VEC3"
    },
    {
      "bufferView": 1,
      "byteOffset": 200752,
      "componentType": 5126,
      "count": 25094,
      "max": [
        0.9914000034332275,
        0.9818000197410583
      ],
      "min": [
        0.007899000309407711,
        0.01090097427368164
      ],
      "type": "VEC2"
    },
    {
      "bufferView": 0,
      "byteOffset": 568248,
      "componentType": 5125,
      "count": 142062,
      "type": "SCALAR"
    }
  ],
  "asset": {
    "extras": {
      "author": "SRUSH651 2th☑ (https://sketchfab.com/THE-OFFICIAL-SRUSH651)",
      "license": "CC-BY-4.0 (http://creativecommons.org/licenses/by/4.0/)",
      "source": "https://sketchfab.com/3d-models/air-jordan-1-off-white-unc-88570f689ae844c682909d8f5efa83a1",
      "title": "AIR JORDAN 1 OFF WHITE UNC"
    },
    "generator": "Sketchfab-16.56.0",
    "version": "2.0"
  },
  "bufferViews": [
    {
      "buffer": 0,
      "byteLength": 1136496,
      "name": "floatBufferViews",
      "target": 34963
    },
    {
      "buffer": 0,
      "byteLength": 401504,
      "byteOffset": 1136496,
      "byteStride": 8,
      "name": "floatBufferViews",
      "target": 34962
    },
    {
      "buffer": 0,
      "byteLength": 1204512,
      "byteOffset": 1538000,
      "byteStride": 12,
      "name": "floatBufferViews",
      "target": 34962
    }
  ],
  "buffers": [
    {
      "byteLength": 2742512,
      "uri": "scene.bin"
    }
  ],
  "images": [
    {
      "uri": "textures/lambert3_baseColor.jpeg"
    },
    {
      "uri": "textures/ffinitialShadingGroup1_baseColor.jpeg"
    }
  ],
  "materials": [
    {
      "doubleSided": true,
      "emissiveFactor": [
        1.0,
        1.0,
        1.0
      ],
      "emissiveTexture": {
        "index": 0
      },
      "name": "lambert3",
      "pbrMetallicRoughness": {
        "baseColorTexture": {
          "index": 0
        }
      }
    },
    {
      "doubleSided": true,
      "emissiveFactor": [
        1.0,
        1.0,
        1.0
      ],
      "emissiveTexture": {
        "index": 1
      },
      "name": "ffinitialShadingGroup1",
      "pbrMetallicRoughness": {
        "baseColorTexture": {
          "index": 1
        }
      }
    }
  ],
  "meshes": [
    {
      "name": "Left_air_jordan1_Off_White_NIKE_Blue_lambert3_0",
      "primitives": [
        {
          "attributes": {
            "NORMAL": 1,
            "POSITION": 0,
            "TEXCOORD_0": 2
          },
          "indices": 3,
          "material": 0,
          "mode": 4
        }
      ]
    },
    {
      "name": "Left_air_jordan1_Off_White_NIKE_Blue1_ff_initialShadingGroup1_0",
      "primitives": [
        {
          "attributes": {
            "NORMAL": 5,
            "POSITION": 4,
            "TEXCOORD_0": 6
          },
          "indices": 7,
          "material": 1,
          "mode": 4
        }
      ]
    }
  ],
  "nodes": [
    {
      "children": [
        1
      ],
      "matrix": [
        1.0,
        0.0,
        0.0,
        0.0,
        0.0,
        2.220446049250313e-16,
        -1.0,
        0.0,
        0.0,
        1.0,
        2.220446049250313e-16,
        0.0,
        0.0,
        0.0,
        0.0,
        1.0
      ],
      "name": "Sketchfab_model"
    },
    {
      "children": [
        2
      ],
      "matrix": [
        0.009999999776482582,
        0.0,
        0.0,
        0.0,
        0.0,
        2.2204459996194763e-18,
        0.009999999776482582,
        0.0,
        0.0,
        -0.009999999776482582,
        2.2204459996194763e-18,
        0.0,
        0.0,
        0.0,
        0.0,
        1.0
      ],
      "name": "USDRoot"
    },
    {
      "children": [
        3
      ],
      "name": "scene"
    },
    {
      "children": [
        4
      ],
      "matrix": [
        100.0,
        0.0,
        0.0,
        0.0,
        0.0,
        100.0,
        0.0,
        0.0,
        0.0,
        0.0,
        100.0,
        0.0,
        0.0,
        0.0,
        0.0,
        1.0
      ],
      "name": "Meshes"
    },
    {
      "children": [
        5
      ],
      "matrix": [
        1.0,
        0.0,
        0.0,
        0.0,
        0.0,
        2.220446049250313e-16,
        -1.0,
        0.0,
        0.0,
        1.0,
        2.220446049250313e-16,
        0.0,
        0.0,
        0.0,
        0.0,
        1.0
      ],
      "name": "Sketchfab_model"
    },
    {
      "children": [
        6
      ],
      "matrix": [
        0.009999999776482582,
        0.0,
        0.0,
        0.0,
        0.0,
        0.0,
        0.009999999776482582,
        0.0,
        0.0,
        -0.009999999776482582,
        0.0,
        0.0,
        0.0,
        0.0,
        0.0,
        1.0
      ],
      "name": "_c1d16512c104f76a2b27a53b405c3e9_fbx"
    },
    {
      "children": [
        7,
        10
      ],
      "name": "RootNode"
    },
    {
      "children": [
        8
      ],
      "name": "Left_air_jordan1_Off_White_NIKE_Blue"
    },
    {
      "children": [
        9
      ],
      "name": "Left_air_jordan1_Off_White_NIKE_Blue_lambert3_0"
    },
    {
      "mesh": 0,
      "name": "Left_air_jordan1_Off_White_NIKE_Blue_lambert3_0"
    },
    {
      "children": [
        11
      ],
      "name": "Left_air_jordan1_Off_White_NIKE_Blue1"
    },
    {
      "children": [
        12
      ],
      "name": "Left_air_jordan1_Off_White_NIKE_Blue1_ff_initialShadingGroup1_0"
    },
    {
      "mesh": 1,
      "name": "Left_air_jordan1_Off_White_NIKE_Blue1_ff_initialShadingGroup1_0"
    }
  ],
  "samplers": [
    {
      "magFilter": 9729,
      "minFilter": 9987,
      "wrapS": 10497,
      "wrapT": 10497
    }
  ],
  "scene": 0,
  "scenes": [
    {
      "name": "Sketchfab_Scene",
      "nodes": [
        0
      ]
    }
  ],
  "textures": [
    {
      "sampler": 0,
      "source": 0
    },
    {
      "sampler": 0,
      "source": 1
    }
  ]
}
